<svg width="100mm" height="100mm" version="1.1" viewBox="0 0 100 100" xml:space="preserve" xmlns="http://www.w3.org/2000/svg"><text transform="scale(.2646)" fill="none" stroke="#f0f0f0" stroke-width="1.164" style="shape-inside:url(#rect11);white-space:pre" xml:space="preserve"/><g stroke="#f0f0f0"><text transform="scale(.2646)" fill="#8b8b8b" font-family="Carlito" stroke-width="1.164" style="shape-inside:url(#rect21);white-space:pre" xml:space="preserve"/><g transform="matrix(.6753 0 0 .6213 -20.61 8.365)" fill="#ede9de" stroke-width=".308"><path transform="rotate(77.09 116.3 68.73)" d="m127.5 46c0.639 0.1733 1.917 0.5198 2.564 0.712 0.6471 0.1922 0.6633 0.2302 0.6335 0.6092-0.0298 0.379-0.1056 1.099-0.1543 1.974-0.0487 0.8745-0.0704 1.903-0.0623 2.702 8e-3 0.7987 0.046 1.367 0.1435 1.93 0.0975 0.5632 0.2545 1.121 0.4061 1.673 0.1516 0.5523 0.2978 1.099 0.463 1.63 0.1652 0.5307 0.3492 1.045 0.5631 1.578 0.2139 0.5334 0.4576 1.086 0.7039 1.551 0.2464 0.4657 0.4955 0.8447 0.7473 1.197 0.2518 0.352 0.5063 0.6769 0.8934 1.153 0.3872 0.4765 0.907 1.105 1.562 1.803s1.446 1.467 2.009 1.99c0.5632 0.5225 0.8989 0.7987 1.362 1.151 0.463 0.352 1.053 0.7797 1.635 1.172 0.5821 0.3926 1.156 0.75 1.685 1.085 0.5293 0.3353 1.014 0.6486 1.476 0.9449 0.4624 0.2964 0.9028 0.5759 1.332 0.8248s0.8462 0.4671 1.057 0.6279c0.2106 0.1608 0.2144 0.2642 0.1914 0.3197-0.023 0.05551-0.0727 0.06316-0.3312 0.1302-0.2585 0.06701-0.7256 0.1934-1.242 0.3503-0.5169 0.157-1.084 0.3446-1.666 0.5418-0.582 0.1972-1.179 0.4039-1.79 0.6203-0.6107 0.2163-1.235 0.4422-1.934 0.7179-0.6988 0.2757-1.472 0.6011-2.309 0.963-0.8366 0.3618-1.736 0.76-2.78 1.264-1.043 0.5035-2.23 1.112-3.299 1.721-1.068 0.6088-2.018 1.218-2.828 1.769s-1.48 1.045-1.962 1.417c-0.4824 0.3714-0.7773 0.6203-1.055 0.8558s-0.538 0.4576-0.8022 0.7026c-0.2642 0.2451-0.5322 0.5131-0.7677 0.7447-0.2355 0.2317-0.4384 0.4269-0.6758 0.6643-0.2374 0.2374-0.5092 0.5169-0.8462 0.8941-0.337 0.3771-0.739 0.8519-1.049 1.235s-0.5284 0.6739-0.7313 0.9534-0.3906 0.5475-0.5743 0.8328c-0.1838 0.2853-0.3638 0.5877-0.5246 0.8711-0.1608 0.2833-0.3025 0.5475-0.3963 0.7313-0.0938 0.1838-0.1397 0.2872-0.1972 0.4078-0.0574 0.1206-0.1264 0.2584-0.1895 0.3025-0.0632 0.04404-0.1206-0.0057-0.2278-0.07658-0.1072-0.07084-0.2642-0.1627-0.4518-0.2642-0.1876-0.1015-0.4059-0.2125-0.6126-0.3235-0.2068-0.111-0.402-0.2221-0.6413-0.358s-0.5226-0.2967-0.7792-0.4327c-0.2565-0.1359-0.4863-0.247-0.5782-0.3389-0.0919-0.0919-0.046-0.1646 0.1053-0.3905 0.1512-0.2259 0.4078-0.605 0.5916-0.9151 0.1838-0.3101 0.2948-0.5514 0.4978-0.8653 0.2029-0.314 0.4978-0.7007 0.8787-1.195 0.381-0.4939 0.8481-1.095 1.306-1.652 0.4576-0.5571 0.9055-1.07 1.325-1.507 0.4193-0.4365 0.8098-0.7964 1.089-1.059 0.2795-0.2623 0.448-0.4269 0.6682-0.6375 0.2202-0.2106 0.492-0.4671 0.716-0.6854 0.224-0.2182 0.4001-0.3982 0.6547-0.626 0.2546-0.2278 0.5877-0.5035 0.8175-0.6892 0.2297-0.1857 0.3561-0.2814 0.5169-0.3944 0.1608-0.113 0.3561-0.2431 0.5935-0.4154 0.2374-0.1723 0.5169-0.3867 0.7754-0.5762 0.2585-0.1895 0.4958-0.3542 0.7639-0.5399 0.268-0.1857 0.5667-0.3925 0.9055-0.6241s0.7179-0.4882 1.068-0.6988c0.3504-0.2106 0.672-0.3752 0.9802-0.5494s0.603-0.358 0.9285-0.5341c0.3255-0.1761 0.6815-0.3446 1.024-0.5016 0.3427-0.157 0.672-0.3025 1.022-0.469 0.3504-0.1666 0.7218-0.3542 1.128-0.5456 0.4059-0.1914 0.8462-0.3867 1.229-0.5533s0.7083-0.3044 1.051-0.4537 0.7026-0.3101 0.9898-0.4308c0.2872-0.1206 0.5016-0.201 0.3618-0.4518-0.1398-0.2508-0.6337-0.672-1.133-1.089-0.4997-0.4174-1.005-0.8309-1.466-1.237-0.4614-0.4059-0.8787-0.8041-1.229-1.143s-0.6337-0.6184-0.9381-0.9515-0.6298-0.7198-0.9764-1.154-0.7141-0.917-1.011-1.327c-0.2967-0.4097-0.5226-0.7466-0.6854-0.9936-0.1627-0.247-0.2623-0.404-0.381-0.5878-0.1187-0.1838-0.2565-0.3944-0.381-0.6126s-0.2355-0.4442-0.3331-0.6337c-0.0976-0.1895-0.1819-0.3427-0.268-0.5112-0.0862-0.1685-0.1742-0.3522-0.2565-0.5207-0.0823-0.1685-0.1589-0.3216-0.245-0.5284-0.0862-0.2068-0.1819-0.4671-0.2642-0.6854-0.0823-0.2182-0.1512-0.3944-0.224-0.6184-0.0727-0.224-0.1493-0.4958-0.2316-0.7811-0.0823-0.2853-0.1704-0.5839-0.2604-0.9036-0.09-0.3197-0.1819-0.6605-0.2776-1.036-0.0957-0.3752-0.1953-0.7849-0.2738-1.156-0.0785-0.3714-0.1359-0.7045-0.1742-1.03-0.0383-0.3255-0.0574-0.6433-0.0727-0.9706s-0.0268-0.6643-0.0306-1.017c-4e-3 -0.3523 0-0.7198 0-1.066s-4e-3 -0.672 4e-3 -1.015 0.0268-0.7026 0.0478-1.061c0.0211-0.358 0.044-0.7141 0.0766-1.038 0.0325-0.3235 0.0747-0.6145 0.1225-0.9113 0.0479-0.2967 0.1015-0.5992 0.1466-0.7935 0.0452-0.1943 0.0819-0.2805 0.1003-0.3236 0.0184-0.04308 0.0185-0.04307 0.6574 0.1302z"/><path transform="rotate(147.4 107.9 70.42)" d="m127.5 46c0.639 0.1733 1.917 0.5198 2.564 0.712 0.6471 0.1922 0.6633 0.2302 0.6335 0.6092-0.0298 0.379-0.1056 1.099-0.1543 1.974-0.0487 0.8745-0.0704 1.903-0.0623 2.702 8e-3 0.7987 0.046 1.367 0.1435 1.93 0.0975 0.5632 0.2545 1.121 0.4061 1.673 0.1516 0.5523 0.2978 1.099 0.463 1.63 0.1652 0.5307 0.3492 1.045 0.5631 1.578 0.2139 0.5334 0.4576 1.086 0.7039 1.551 0.2464 0.4657 0.4955 0.8447 0.7473 1.197 0.2518 0.352 0.5063 0.6769 0.8934 1.153 0.3872 0.4765 0.907 1.105 1.562 1.803s1.446 1.467 2.009 1.99c0.5632 0.5225 0.8989 0.7987 1.362 1.151 0.463 0.352 1.053 0.7797 1.635 1.172 0.5821 0.3926 1.156 0.75 1.685 1.085 0.5293 0.3353 1.014 0.6486 1.476 0.9449 0.4624 0.2964 0.9028 0.5759 1.332 0.8248s0.8462 0.4671 1.057 0.6279c0.2106 0.1608 0.2144 0.2642 0.1914 0.3197-0.023 0.05551-0.0727 0.06316-0.3312 0.1302-0.2585 0.06701-0.7256 0.1934-1.242 0.3503-0.5169 0.157-1.084 0.3446-1.666 0.5418-0.582 0.1972-1.179 0.4039-1.79 0.6203-0.6107 0.2163-1.235 0.4422-1.934 0.7179-0.6988 0.2757-1.472 0.6011-2.309 0.963-0.8366 0.3618-1.736 0.76-2.78 1.264-1.043 0.5035-2.23 1.112-3.299 1.721-1.068 0.6088-2.018 1.218-2.828 1.769s-1.48 1.045-1.962 1.417c-0.4824 0.3714-0.7773 0.6203-1.055 0.8558s-0.538 0.4576-0.8022 0.7026c-0.2642 0.2451-0.5322 0.5131-0.7677 0.7447-0.2355 0.2317-0.4384 0.4269-0.6758 0.6643-0.2374 0.2374-0.5092 0.5169-0.8462 0.8941-0.337 0.3771-0.739 0.8519-1.049 1.235s-0.5284 0.6739-0.7313 0.9534-0.3906 0.5475-0.5743 0.8328c-0.1838 0.2853-0.3638 0.5877-0.5246 0.8711-0.1608 0.2833-0.3025 0.5475-0.3963 0.7313-0.0938 0.1838-0.1397 0.2872-0.1972 0.4078-0.0574 0.1206-0.1264 0.2584-0.1895 0.3025-0.0632 0.04404-0.1206-0.0057-0.2278-0.07658-0.1072-0.07084-0.2642-0.1627-0.4518-0.2642-0.1876-0.1015-0.4059-0.2125-0.6126-0.3235-0.2068-0.111-0.402-0.2221-0.6413-0.358s-0.5226-0.2967-0.7792-0.4327c-0.2565-0.1359-0.4863-0.247-0.5782-0.3389-0.0919-0.0919-0.046-0.1646 0.1053-0.3905 0.1512-0.2259 0.4078-0.605 0.5916-0.9151 0.1838-0.3101 0.2948-0.5514 0.4978-0.8653 0.2029-0.314 0.4978-0.7007 0.8787-1.195 0.381-0.4939 0.8481-1.095 1.306-1.652 0.4576-0.5571 0.9055-1.07 1.325-1.507 0.4193-0.4365 0.8098-0.7964 1.089-1.059 0.2795-0.2623 0.448-0.4269 0.6682-0.6375 0.2202-0.2106 0.492-0.4671 0.716-0.6854 0.224-0.2182 0.4001-0.3982 0.6547-0.626 0.2546-0.2278 0.5877-0.5035 0.8175-0.6892 0.2297-0.1857 0.3561-0.2814 0.5169-0.3944 0.1608-0.113 0.3561-0.2431 0.5935-0.4154 0.2374-0.1723 0.5169-0.3867 0.7754-0.5762 0.2585-0.1895 0.4958-0.3542 0.7639-0.5399 0.268-0.1857 0.5667-0.3925 0.9055-0.6241s0.7179-0.4882 1.068-0.6988c0.3504-0.2106 0.672-0.3752 0.9802-0.5494s0.603-0.358 0.9285-0.5341c0.3255-0.1761 0.6815-0.3446 1.024-0.5016 0.3427-0.157 0.672-0.3025 1.022-0.469 0.3504-0.1666 0.7218-0.3542 1.128-0.5456 0.4059-0.1914 0.8462-0.3867 1.229-0.5533s0.7083-0.3044 1.051-0.4537 0.7026-0.3101 0.9898-0.4308c0.2872-0.1206 0.5016-0.201 0.3618-0.4518-0.1398-0.2508-0.6337-0.672-1.133-1.089-0.4997-0.4174-1.005-0.8309-1.466-1.237-0.4614-0.4059-0.8787-0.8041-1.229-1.143s-0.6337-0.6184-0.9381-0.9515-0.6298-0.7198-0.9764-1.154-0.7141-0.917-1.011-1.327c-0.2967-0.4097-0.5226-0.7466-0.6854-0.9936-0.1627-0.247-0.2623-0.404-0.381-0.5878-0.1187-0.1838-0.2565-0.3944-0.381-0.6126s-0.2355-0.4442-0.3331-0.6337c-0.0976-0.1895-0.1819-0.3427-0.268-0.5112-0.0862-0.1685-0.1742-0.3522-0.2565-0.5207-0.0823-0.1685-0.1589-0.3216-0.245-0.5284-0.0862-0.2068-0.1819-0.4671-0.2642-0.6854-0.0823-0.2182-0.1512-0.3944-0.224-0.6184-0.0727-0.224-0.1493-0.4958-0.2316-0.7811-0.0823-0.2853-0.1704-0.5839-0.2604-0.9036-0.09-0.3197-0.1819-0.6605-0.2776-1.036-0.0957-0.3752-0.1953-0.7849-0.2738-1.156-0.0785-0.3714-0.1359-0.7045-0.1742-1.03-0.0383-0.3255-0.0574-0.6433-0.0727-0.9706s-0.0268-0.6643-0.0306-1.017c-4e-3 -0.3523 0-0.7198 0-1.066s-4e-3 -0.672 4e-3 -1.015 0.0268-0.7026 0.0478-1.061c0.0211-0.358 0.044-0.7141 0.0766-1.038 0.0325-0.3235 0.0747-0.6145 0.1225-0.9113 0.0479-0.2967 0.1015-0.5992 0.1466-0.7935 0.0452-0.1943 0.0819-0.2805 0.1003-0.3236 0.0184-0.04308 0.0185-0.04307 0.6574 0.1302z"/><path transform="rotate(217.9 102.1 72.07)" d="m127.5 46c0.639 0.1733 1.917 0.5198 2.564 0.712 0.6471 0.1922 0.6633 0.2302 0.6335 0.6092-0.0298 0.379-0.1056 1.099-0.1543 1.974-0.0487 0.8745-0.0704 1.903-0.0623 2.702 8e-3 0.7987 0.046 1.367 0.1435 1.93 0.0975 0.5632 0.2545 1.121 0.4061 1.673 0.1516 0.5523 0.2978 1.099 0.463 1.63 0.1652 0.5307 0.3492 1.045 0.5631 1.578 0.2139 0.5334 0.4576 1.086 0.7039 1.551 0.2464 0.4657 0.4955 0.8447 0.7473 1.197 0.2518 0.352 0.5063 0.6769 0.8934 1.153 0.3872 0.4765 0.907 1.105 1.562 1.803s1.446 1.467 2.009 1.99c0.5632 0.5225 0.8989 0.7987 1.362 1.151 0.463 0.352 1.053 0.7797 1.635 1.172 0.5821 0.3926 1.156 0.75 1.685 1.085 0.5293 0.3353 1.014 0.6486 1.476 0.9449 0.4624 0.2964 0.9028 0.5759 1.332 0.8248s0.8462 0.4671 1.057 0.6279c0.2106 0.1608 0.2144 0.2642 0.1914 0.3197-0.023 0.05551-0.0727 0.06316-0.3312 0.1302-0.2585 0.06701-0.7256 0.1934-1.242 0.3503-0.5169 0.157-1.084 0.3446-1.666 0.5418-0.582 0.1972-1.179 0.4039-1.79 0.6203-0.6107 0.2163-1.235 0.4422-1.934 0.7179-0.6988 0.2757-1.472 0.6011-2.309 0.963-0.8366 0.3618-1.736 0.76-2.78 1.264-1.043 0.5035-2.23 1.112-3.299 1.721-1.068 0.6088-2.018 1.218-2.828 1.769s-1.48 1.045-1.962 1.417c-0.4824 0.3714-0.7773 0.6203-1.055 0.8558s-0.538 0.4576-0.8022 0.7026c-0.2642 0.2451-0.5322 0.5131-0.7677 0.7447-0.2355 0.2317-0.4384 0.4269-0.6758 0.6643-0.2374 0.2374-0.5092 0.5169-0.8462 0.8941-0.337 0.3771-0.739 0.8519-1.049 1.235s-0.5284 0.6739-0.7313 0.9534-0.3906 0.5475-0.5743 0.8328c-0.1838 0.2853-0.3638 0.5877-0.5246 0.8711-0.1608 0.2833-0.3025 0.5475-0.3963 0.7313-0.0938 0.1838-0.1397 0.2872-0.1972 0.4078-0.0574 0.1206-0.1264 0.2584-0.1895 0.3025-0.0632 0.04404-0.1206-0.0057-0.2278-0.07658-0.1072-0.07084-0.2642-0.1627-0.4518-0.2642-0.1876-0.1015-0.4059-0.2125-0.6126-0.3235-0.2068-0.111-0.402-0.2221-0.6413-0.358s-0.5226-0.2967-0.7792-0.4327c-0.2565-0.1359-0.4863-0.247-0.5782-0.3389-0.0919-0.0919-0.046-0.1646 0.1053-0.3905 0.1512-0.2259 0.4078-0.605 0.5916-0.9151 0.1838-0.3101 0.2948-0.5514 0.4978-0.8653 0.2029-0.314 0.4978-0.7007 0.8787-1.195 0.381-0.4939 0.8481-1.095 1.306-1.652 0.4576-0.5571 0.9055-1.07 1.325-1.507 0.4193-0.4365 0.8098-0.7964 1.089-1.059 0.2795-0.2623 0.448-0.4269 0.6682-0.6375 0.2202-0.2106 0.492-0.4671 0.716-0.6854 0.224-0.2182 0.4001-0.3982 0.6547-0.626 0.2546-0.2278 0.5877-0.5035 0.8175-0.6892 0.2297-0.1857 0.3561-0.2814 0.5169-0.3944 0.1608-0.113 0.3561-0.2431 0.5935-0.4154 0.2374-0.1723 0.5169-0.3867 0.7754-0.5762 0.2585-0.1895 0.4958-0.3542 0.7639-0.5399 0.268-0.1857 0.5667-0.3925 0.9055-0.6241s0.7179-0.4882 1.068-0.6988c0.3504-0.2106 0.672-0.3752 0.9802-0.5494s0.603-0.358 0.9285-0.5341c0.3255-0.1761 0.6815-0.3446 1.024-0.5016 0.3427-0.157 0.672-0.3025 1.022-0.469 0.3504-0.1666 0.7218-0.3542 1.128-0.5456 0.4059-0.1914 0.8462-0.3867 1.229-0.5533s0.7083-0.3044 1.051-0.4537 0.7026-0.3101 0.9898-0.4308c0.2872-0.1206 0.5016-0.201 0.3618-0.4518-0.1398-0.2508-0.6337-0.672-1.133-1.089-0.4997-0.4174-1.005-0.8309-1.466-1.237-0.4614-0.4059-0.8787-0.8041-1.229-1.143s-0.6337-0.6184-0.9381-0.9515-0.6298-0.7198-0.9764-1.154-0.7141-0.917-1.011-1.327c-0.2967-0.4097-0.5226-0.7466-0.6854-0.9936-0.1627-0.247-0.2623-0.404-0.381-0.5878-0.1187-0.1838-0.2565-0.3944-0.381-0.6126s-0.2355-0.4442-0.3331-0.6337c-0.0976-0.1895-0.1819-0.3427-0.268-0.5112-0.0862-0.1685-0.1742-0.3522-0.2565-0.5207-0.0823-0.1685-0.1589-0.3216-0.245-0.5284-0.0862-0.2068-0.1819-0.4671-0.2642-0.6854-0.0823-0.2182-0.1512-0.3944-0.224-0.6184-0.0727-0.224-0.1493-0.4958-0.2316-0.7811-0.0823-0.2853-0.1704-0.5839-0.2604-0.9036-0.09-0.3197-0.1819-0.6605-0.2776-1.036-0.0957-0.3752-0.1953-0.7849-0.2738-1.156-0.0785-0.3714-0.1359-0.7045-0.1742-1.03-0.0383-0.3255-0.0574-0.6433-0.0727-0.9706s-0.0268-0.6643-0.0306-1.017c-4e-3 -0.3523 0-0.7198 0-1.066s-4e-3 -0.672 4e-3 -1.015 0.0268-0.7026 0.0478-1.061c0.0211-0.358 0.044-0.7141 0.0766-1.038 0.0325-0.3235 0.0747-0.6145 0.1225-0.9113 0.0479-0.2967 0.1015-0.5992 0.1466-0.7935 0.0452-0.1943 0.0819-0.2805 0.1003-0.3236 0.0184-0.04308 0.0185-0.04307 0.6574 0.1302z"/><path transform="rotate(-70.8 94.94 74.41)" d="m127.5 46c0.639 0.1733 1.917 0.5198 2.564 0.712 0.6471 0.1922 0.6633 0.2302 0.6335 0.6092-0.0298 0.379-0.1056 1.099-0.1543 1.974-0.0487 0.8745-0.0704 1.903-0.0623 2.702 8e-3 0.7987 0.046 1.367 0.1435 1.93 0.0975 0.5632 0.2545 1.121 0.4061 1.673 0.1516 0.5523 0.2978 1.099 0.463 1.63 0.1652 0.5307 0.3492 1.045 0.5631 1.578 0.2139 0.5334 0.4576 1.086 0.7039 1.551 0.2464 0.4657 0.4955 0.8447 0.7473 1.197 0.2518 0.352 0.5063 0.6769 0.8934 1.153 0.3872 0.4765 0.907 1.105 1.562 1.803s1.446 1.467 2.009 1.99c0.5632 0.5225 0.8989 0.7987 1.362 1.151 0.463 0.352 1.053 0.7797 1.635 1.172 0.5821 0.3926 1.156 0.75 1.685 1.085 0.5293 0.3353 1.014 0.6486 1.476 0.9449 0.4624 0.2964 0.9028 0.5759 1.332 0.8248s0.8462 0.4671 1.057 0.6279c0.2106 0.1608 0.2144 0.2642 0.1914 0.3197-0.023 0.05551-0.0727 0.06316-0.3312 0.1302-0.2585 0.06701-0.7256 0.1934-1.242 0.3503-0.5169 0.157-1.084 0.3446-1.666 0.5418-0.582 0.1972-1.179 0.4039-1.79 0.6203-0.6107 0.2163-1.235 0.4422-1.934 0.7179-0.6988 0.2757-1.472 0.6011-2.309 0.963-0.8366 0.3618-1.736 0.76-2.78 1.264-1.043 0.5035-2.23 1.112-3.299 1.721-1.068 0.6088-2.018 1.218-2.828 1.769s-1.48 1.045-1.962 1.417c-0.4824 0.3714-0.7773 0.6203-1.055 0.8558s-0.538 0.4576-0.8022 0.7026c-0.2642 0.2451-0.5322 0.5131-0.7677 0.7447-0.2355 0.2317-0.4384 0.4269-0.6758 0.6643-0.2374 0.2374-0.5092 0.5169-0.8462 0.8941-0.337 0.3771-0.739 0.8519-1.049 1.235s-0.5284 0.6739-0.7313 0.9534-0.3906 0.5475-0.5743 0.8328c-0.1838 0.2853-0.3638 0.5877-0.5246 0.8711-0.1608 0.2833-0.3025 0.5475-0.3963 0.7313-0.0938 0.1838-0.1397 0.2872-0.1972 0.4078-0.0574 0.1206-0.1264 0.2584-0.1895 0.3025-0.0632 0.04404-0.1206-0.0057-0.2278-0.07658-0.1072-0.07084-0.2642-0.1627-0.4518-0.2642-0.1876-0.1015-0.4059-0.2125-0.6126-0.3235-0.2068-0.111-0.402-0.2221-0.6413-0.358s-0.5226-0.2967-0.7792-0.4327c-0.2565-0.1359-0.4863-0.247-0.5782-0.3389-0.0919-0.0919-0.046-0.1646 0.1053-0.3905 0.1512-0.2259 0.4078-0.605 0.5916-0.9151 0.1838-0.3101 0.2948-0.5514 0.4978-0.8653 0.2029-0.314 0.4978-0.7007 0.8787-1.195 0.381-0.4939 0.8481-1.095 1.306-1.652 0.4576-0.5571 0.9055-1.07 1.325-1.507 0.4193-0.4365 0.8098-0.7964 1.089-1.059 0.2795-0.2623 0.448-0.4269 0.6682-0.6375 0.2202-0.2106 0.492-0.4671 0.716-0.6854 0.224-0.2182 0.4001-0.3982 0.6547-0.626 0.2546-0.2278 0.5877-0.5035 0.8175-0.6892 0.2297-0.1857 0.3561-0.2814 0.5169-0.3944 0.1608-0.113 0.3561-0.2431 0.5935-0.4154 0.2374-0.1723 0.5169-0.3867 0.7754-0.5762 0.2585-0.1895 0.4958-0.3542 0.7639-0.5399 0.268-0.1857 0.5667-0.3925 0.9055-0.6241s0.7179-0.4882 1.068-0.6988c0.3504-0.2106 0.672-0.3752 0.9802-0.5494s0.603-0.358 0.9285-0.5341c0.3255-0.1761 0.6815-0.3446 1.024-0.5016 0.3427-0.157 0.672-0.3025 1.022-0.469 0.3504-0.1666 0.7218-0.3542 1.128-0.5456 0.4059-0.1914 0.8462-0.3867 1.229-0.5533s0.7083-0.3044 1.051-0.4537 0.7026-0.3101 0.9898-0.4308c0.2872-0.1206 0.5016-0.201 0.3618-0.4518-0.1398-0.2508-0.6337-0.672-1.133-1.089-0.4997-0.4174-1.005-0.8309-1.466-1.237-0.4614-0.4059-0.8787-0.8041-1.229-1.143s-0.6337-0.6184-0.9381-0.9515-0.6298-0.7198-0.9764-1.154-0.7141-0.917-1.011-1.327c-0.2967-0.4097-0.5226-0.7466-0.6854-0.9936-0.1627-0.247-0.2623-0.404-0.381-0.5878-0.1187-0.1838-0.2565-0.3944-0.381-0.6126s-0.2355-0.4442-0.3331-0.6337c-0.0976-0.1895-0.1819-0.3427-0.268-0.5112-0.0862-0.1685-0.1742-0.3522-0.2565-0.5207-0.0823-0.1685-0.1589-0.3216-0.245-0.5284-0.0862-0.2068-0.1819-0.4671-0.2642-0.6854-0.0823-0.2182-0.1512-0.3944-0.224-0.6184-0.0727-0.224-0.1493-0.4958-0.2316-0.7811-0.0823-0.2853-0.1704-0.5839-0.2604-0.9036-0.09-0.3197-0.1819-0.6605-0.2776-1.036-0.0957-0.3752-0.1953-0.7849-0.2738-1.156-0.0785-0.3714-0.1359-0.7045-0.1742-1.03-0.0383-0.3255-0.0574-0.6433-0.0727-0.9706s-0.0268-0.6643-0.0306-1.017c-4e-3 -0.3523 0-0.7198 0-1.066s-4e-3 -0.672 4e-3 -1.015 0.0268-0.7026 0.0478-1.061c0.0211-0.358 0.044-0.7141 0.0766-1.038 0.0325-0.3235 0.0747-0.6145 0.1225-0.9113 0.0479-0.2967 0.1015-0.5992 0.1466-0.7935 0.0452-0.1943 0.0819-0.2805 0.1003-0.3236 0.0184-0.04308 0.0185-0.04307 0.6574 0.1302z"/><path transform="translate(-3.453 -16.57)" d="m127.5 46c0.639 0.1733 1.917 0.5198 2.564 0.712 0.6471 0.1922 0.6633 0.2302 0.6335 0.6092-0.0298 0.379-0.1056 1.099-0.1543 1.974-0.0487 0.8745-0.0704 1.903-0.0623 2.702 8e-3 0.7987 0.046 1.367 0.1435 1.93 0.0975 0.5632 0.2545 1.121 0.4061 1.673 0.1516 0.5523 0.2978 1.099 0.463 1.63 0.1652 0.5307 0.3492 1.045 0.5631 1.578 0.2139 0.5334 0.4576 1.086 0.7039 1.551 0.2464 0.4657 0.4955 0.8447 0.7473 1.197 0.2518 0.352 0.5063 0.6769 0.8934 1.153 0.3872 0.4765 0.907 1.105 1.562 1.803s1.446 1.467 2.009 1.99c0.5632 0.5225 0.8989 0.7987 1.362 1.151 0.463 0.352 1.053 0.7797 1.635 1.172 0.5821 0.3926 1.156 0.75 1.685 1.085 0.5293 0.3353 1.014 0.6486 1.476 0.9449 0.4624 0.2964 0.9028 0.5759 1.332 0.8248s0.8462 0.4671 1.057 0.6279c0.2106 0.1608 0.2144 0.2642 0.1914 0.3197-0.023 0.05551-0.0727 0.06316-0.3312 0.1302-0.2585 0.06701-0.7256 0.1934-1.242 0.3503-0.5169 0.157-1.084 0.3446-1.666 0.5418-0.582 0.1972-1.179 0.4039-1.79 0.6203-0.6107 0.2163-1.235 0.4422-1.934 0.7179-0.6988 0.2757-1.472 0.6011-2.309 0.963-0.8366 0.3618-1.736 0.76-2.78 1.264-1.043 0.5035-2.23 1.112-3.299 1.721-1.068 0.6088-2.018 1.218-2.828 1.769s-1.48 1.045-1.962 1.417c-0.4824 0.3714-0.7773 0.6203-1.055 0.8558s-0.538 0.4576-0.8022 0.7026c-0.2642 0.2451-0.5322 0.5131-0.7677 0.7447-0.2355 0.2317-0.4384 0.4269-0.6758 0.6643-0.2374 0.2374-0.5092 0.5169-0.8462 0.8941-0.337 0.3771-0.739 0.8519-1.049 1.235s-0.5284 0.6739-0.7313 0.9534-0.3906 0.5475-0.5743 0.8328c-0.1838 0.2853-0.3638 0.5877-0.5246 0.8711-0.1608 0.2833-0.3025 0.5475-0.3963 0.7313-0.0938 0.1838-0.1397 0.2872-0.1972 0.4078-0.0574 0.1206-0.1264 0.2584-0.1895 0.3025-0.0632 0.04404-0.1206-0.0057-0.2278-0.07658-0.1072-0.07084-0.2642-0.1627-0.4518-0.2642-0.1876-0.1015-0.4059-0.2125-0.6126-0.3235-0.2068-0.111-0.402-0.2221-0.6413-0.358s-0.5226-0.2967-0.7792-0.4327c-0.2565-0.1359-0.4863-0.247-0.5782-0.3389-0.0919-0.0919-0.046-0.1646 0.1053-0.3905 0.1512-0.2259 0.4078-0.605 0.5916-0.9151 0.1838-0.3101 0.2948-0.5514 0.4978-0.8653 0.2029-0.314 0.4978-0.7007 0.8787-1.195 0.381-0.4939 0.8481-1.095 1.306-1.652 0.4576-0.5571 0.9055-1.07 1.325-1.507 0.4193-0.4365 0.8098-0.7964 1.089-1.059 0.2795-0.2623 0.448-0.4269 0.6682-0.6375 0.2202-0.2106 0.492-0.4671 0.716-0.6854 0.224-0.2182 0.4001-0.3982 0.6547-0.626 0.2546-0.2278 0.5877-0.5035 0.8175-0.6892 0.2297-0.1857 0.3561-0.2814 0.5169-0.3944 0.1608-0.113 0.3561-0.2431 0.5935-0.4154 0.2374-0.1723 0.5169-0.3867 0.7754-0.5762 0.2585-0.1895 0.4958-0.3542 0.7639-0.5399 0.268-0.1857 0.5667-0.3925 0.9055-0.6241s0.7179-0.4882 1.068-0.6988c0.3504-0.2106 0.672-0.3752 0.9802-0.5494s0.603-0.358 0.9285-0.5341c0.3255-0.1761 0.6815-0.3446 1.024-0.5016 0.3427-0.157 0.672-0.3025 1.022-0.469 0.3504-0.1666 0.7218-0.3542 1.128-0.5456 0.4059-0.1914 0.8462-0.3867 1.229-0.5533s0.7083-0.3044 1.051-0.4537 0.7026-0.3101 0.9898-0.4308c0.2872-0.1206 0.5016-0.201 0.3618-0.4518-0.1398-0.2508-0.6337-0.672-1.133-1.089-0.4997-0.4174-1.005-0.8309-1.466-1.237-0.4614-0.4059-0.8787-0.8041-1.229-1.143s-0.6337-0.6184-0.9381-0.9515-0.6298-0.7198-0.9764-1.154-0.7141-0.917-1.011-1.327c-0.2967-0.4097-0.5226-0.7466-0.6854-0.9936-0.1627-0.247-0.2623-0.404-0.381-0.5878-0.1187-0.1838-0.2565-0.3944-0.381-0.6126s-0.2355-0.4442-0.3331-0.6337c-0.0976-0.1895-0.1819-0.3427-0.268-0.5112-0.0862-0.1685-0.1742-0.3522-0.2565-0.5207-0.0823-0.1685-0.1589-0.3216-0.245-0.5284-0.0862-0.2068-0.1819-0.4671-0.2642-0.6854-0.0823-0.2182-0.1512-0.3944-0.224-0.6184-0.0727-0.224-0.1493-0.4958-0.2316-0.7811-0.0823-0.2853-0.1704-0.5839-0.2604-0.9036-0.09-0.3197-0.1819-0.6605-0.2776-1.036-0.0957-0.3752-0.1953-0.7849-0.2738-1.156-0.0785-0.3714-0.1359-0.7045-0.1742-1.03-0.0383-0.3255-0.0574-0.6433-0.0727-0.9706s-0.0268-0.6643-0.0306-1.017c-4e-3 -0.3523 0-0.7198 0-1.066s-4e-3 -0.672 4e-3 -1.015 0.0268-0.7026 0.0478-1.061c0.0211-0.358 0.044-0.7141 0.0766-1.038 0.0325-0.3235 0.0747-0.6145 0.1225-0.9113 0.0479-0.2967 0.1015-0.5992 0.1466-0.7935 0.0452-0.1943 0.0819-0.2805 0.1003-0.3236 0.0184-0.04308 0.0185-0.04307 0.6574 0.1302z"/></g></g></svg>
